<svg width="193" height="50" viewBox="0 0 193 50" fill="none" xmlns="http://www.w3.org/2000/svg">
<path d="M6.04 16.942L7.174 10.6H29.728L12.256 33.868L24.226 33.91L23.134 40H0.0759999L17.338 16.942H6.04ZM41.4706 10.6H48.6106L43.5706 40H36.4726L41.4706 10.6ZM62.8726 10.6H69.8866L65.8966 33.91H77.3626L76.2706 40H57.8326L62.8726 10.6ZM92.7647 10.6H99.7787L95.7887 33.91H107.255L106.163 40H87.7247L92.7647 10.6ZM124.39 34.33L125.776 28.912H140.056L139.594 34.33H124.39ZM134.092 21.394L128.59 30.886L128.632 32.482L123.802 40H115.738L136.234 8.626L145.894 40H138.208L136.066 32.692L136.528 30.928L134.092 21.394Z" fill="white"/>
<path d="M157.14 38.82C157.14 38.3667 157.293 37.9867 157.6 37.68C157.907 37.36 158.293 37.2 158.76 37.2C159.24 37.2 159.633 37.36 159.94 37.68C160.247 37.9867 160.4 38.3667 160.4 38.82C160.4 39.2467 160.247 39.62 159.94 39.94C159.633 40.26 159.24 40.42 158.76 40.42C158.293 40.42 157.907 40.26 157.6 39.94C157.293 39.62 157.14 39.2467 157.14 38.82ZM165.593 28.58L166.053 26H176.193L175.733 28.58H172.093L170.133 40H167.313L169.273 28.58H165.593ZM184.311 35.1L189.391 26H192.711L183.471 40.86L178.871 26H182.071L184.311 35.1Z" fill="#FFFF13"/>
</svg>
