<svg width="95" height="20" viewBox="0 0 95 20" fill="none" xmlns="http://www.w3.org/2000/svg">
<path d="M3.64795 6.60021L4.46395 1.92021H18.24L8.95195 14.2562L15.024 14.2802L14.232 18.7202H-5.07981e-05L9.09595 6.60021H3.64795ZM18.7567 3.79221C18.7567 3.08821 19.0047 2.52021 19.5007 2.08821C20.0127 1.65621 20.6287 1.44021 21.3487 1.44021C22.0687 1.44021 22.6767 1.65621 23.1727 2.08821C23.6847 2.52021 23.9407 3.08821 23.9407 3.79221C23.9407 4.49621 23.6847 5.06421 23.1727 5.49621C22.6767 5.92821 22.0687 6.14421 21.3487 6.14421C20.6287 6.14421 20.0127 5.92821 19.5007 5.49621C19.0047 5.06421 18.7567 4.49621 18.7567 3.79221ZM18.4687 7.68021H22.9087L21.0127 18.7202H16.5727L18.4687 7.68021ZM26.4684 0.0002141H31.1004L27.8844 18.7202H23.2764L26.4684 0.0002141ZM33.3356 0.0002141H37.9676L34.7516 18.7202H30.1436L33.3356 0.0002141ZM47.0428 7.68021H51.6748L49.7788 18.7202H45.1468L47.0428 7.68021ZM37.4908 13.1762C37.6348 12.0722 37.9868 11.0882 38.5468 10.2242C39.1068 9.36021 39.8028 8.68021 40.6348 8.18421C41.4828 7.68821 42.3788 7.44021 43.3228 7.44021C44.0748 7.44021 44.7148 7.60021 45.2428 7.92021C45.7708 8.22421 46.1948 8.64821 46.5148 9.19221C46.8508 9.72021 47.0748 10.3362 47.1868 11.0402C47.2988 11.7282 47.3068 12.4482 47.2108 13.2002C47.1148 13.9842 46.9068 14.7282 46.5868 15.4322C46.2668 16.1202 45.8588 16.7282 45.3628 17.2562C44.8828 17.7842 44.3228 18.2002 43.6828 18.5042C43.0588 18.7922 42.3788 18.9362 41.6428 18.9362C40.6988 18.9362 39.8908 18.6802 39.2188 18.1682C38.5628 17.6402 38.0748 16.9442 37.7548 16.0802C37.4508 15.2002 37.3628 14.2322 37.4908 13.1762ZM42.3388 13.2002C42.2908 13.5362 42.3068 13.8722 42.3868 14.2082C42.4828 14.5282 42.6428 14.7922 42.8668 15.0002C43.1068 15.2082 43.4028 15.3202 43.7548 15.3362C44.0268 15.3522 44.2908 15.3042 44.5468 15.1922C44.8028 15.0802 45.0348 14.9202 45.2428 14.7122C45.4668 14.5042 45.6508 14.2722 45.7948 14.0162C45.9548 13.7442 46.0588 13.4642 46.1068 13.1762C46.1388 12.9042 46.1308 12.6482 46.0828 12.4082C46.0508 12.1522 45.9708 11.9282 45.8428 11.7362C45.7148 11.5282 45.5548 11.3682 45.3628 11.2562C45.1868 11.1282 44.9708 11.0562 44.7148 11.0402C44.3468 11.0242 43.9868 11.1202 43.6348 11.3282C43.2988 11.5362 43.0108 11.8082 42.7708 12.1442C42.5468 12.4802 42.4028 12.8322 42.3388 13.2002ZM60.1409 6.60021L60.9569 1.92021H75.477L74.661 6.60021H70.0289L67.9409 18.7202H62.7329L64.8209 6.60021H60.1409ZM83.897 10.0322L88.265 1.92021H94.505L82.457 19.9682L76.025 1.92021H82.049L83.897 10.0322Z" fill="white"/>
</svg>
